<?xml version="1.0" standalone="no"?><!DOCTYPE svg PUBLIC "-//W3C//DTD SVG 1.1//EN" "http://www.w3.org/Graphics/SVG/1.1/DTD/svg11.dtd"><svg t="1569144812365" class="icon" viewBox="0 0 1024 1024" version="1.1" xmlns="http://www.w3.org/2000/svg" p-id="2798" data-spm-anchor-id="a313x.7781069.0.i19" xmlns:xlink="http://www.w3.org/1999/xlink" width="200" height="200"><defs><style type="text/css"></style></defs><path d="M797.68841482 540.76302222c-0.48545185-82.76954075 37.0157037-145.1501037 112.74619259-191.14666667-42.35567408-60.68148148-106.43531852-94.0562963-190.90394074-100.48853333-79.97819259-6.31087408-167.48088889 46.60337778-199.52071112 46.60337778-33.86026667 0-111.28983703-44.41884445-172.21404444-44.41884445C222.06388148 253.25416297 88.44325925 351.55816297 88.44325925 551.56432592c0 59.10376297 10.8013037 120.14933333 32.40391112 183.01534816 28.88438518 82.76954075 133.01380741 285.56705185 241.63365926 282.29025184 56.79786667-1.33499259 96.96900741-40.2925037 170.87905185-40.2925037 71.72551111 0 108.86257778 40.2925037 172.21404444 40.2925037 109.59075555-1.57771852 203.76841482-185.92805925 231.19644445-268.94032592-146.97054815-69.29825185-139.08195555-202.91887408-139.08195555-207.16657778z" fill="#FF2D55" p-id="2799" data-spm-anchor-id="a313x.7781069.0.i18" class=""></path><path d="M670.13594075 170.60598518c61.53102222-73.0605037 55.94832592-139.56740741 54.12788147-163.4759111-54.37060741 3.15543703-117.23662222 37.0157037-153.0386963 78.6432-39.44296297 44.66157037-62.62328889 99.88171852-57.6474074 162.14091851 58.73967408 4.49042963 112.3821037-25.72894815 156.55822223-77.30820741z" fill="#FF2D55" p-id="2800" data-spm-anchor-id="a313x.7781069.0.i20" class="selected"></path></svg>